<svg xmlns="http://www.w3.org/2000/svg" xmlns:serif="http://www.serif.com/" fill-rule="evenodd" clip-rule="evenodd" viewBox="0 0 1025 550">
  <g transform="rotate(90 603.75 398.75)">
    <path fill="none" stroke="gray" d="M85 1002.67h85" transform="matrix(.5 0 0 1 270.453 -32.5)"/>
    <path fill="none" stroke="gray" d="M85 960.342h85" transform="matrix(.5 0 0 1 270.453 -32.5)"/>
    <path fill="none" stroke="gray" d="M255 907.43l85-10.582" transform="matrix(.5 0 0 1 270.453 -32.5)"/>
    <path fill="none" stroke="gray" d="M255 907.43l85 10.583" transform="matrix(.5 0 0 1 270.453 -32.5)"/>
    <path fill="none" stroke="gray" d="M170 918.013l85-10.583" transform="matrix(.5 0 0 1 270.453 -32.5)"/>
    <path fill="none" stroke="gray" d="M170 918.013l85 10.582" transform="matrix(.5 0 0 1 270.453 -32.5)"/>
    <path fill="none" stroke="gray" d="M85 918.013h85" transform="matrix(.5 0 0 1 270.453 -32.5)"/>
    <path fill="none" stroke="gray" d="M170 865.101h85" transform="matrix(.5 0 0 1 270.453 -32.5)"/>
    <path fill="none" stroke="gray" d="M85 865.101h85" transform="matrix(.5 0 0 1 270.453 -32.5)"/>
    <path fill="none" stroke="gray" d="M170 801.608h85" transform="matrix(.5 0 0 1 270.453 -32.5)"/>
    <path fill="none" stroke="gray" d="M340 830.709h85" transform="matrix(.5 0 0 1 270.453 -32.5)"/>
    <path fill="none" stroke="gray" d="M510 746.051l85-31.747" transform="matrix(.5 0 0 1 270.453 -32.5)"/>
    <path fill="none" stroke="gray" d="M510 746.051l85-10.583" transform="matrix(.5 0 0 1 270.453 -32.5)"/>
    <path fill="none" stroke="gray" d="M510 746.051l85 10.582" transform="matrix(.5 0 0 1 270.453 -32.5)"/>
    <path fill="none" stroke="gray" d="M510 746.051l85 31.746" transform="matrix(.5 0 0 1 270.453 -32.5)"/>
    <path fill="none" stroke="gray" d="M425 746.051h85" transform="matrix(.5 0 0 1 270.453 -32.5)"/>
    <path fill="none" stroke="gray" d="M850 714.304h85" transform="matrix(.5 0 0 1 270.453 -32.5)"/>
    <path fill="none" stroke="gray" d="M765 703.722l85-10.583" transform="matrix(.5 0 0 1 270.453 -32.5)"/>
    <path fill="none" stroke="gray" d="M765 703.722l85 10.582" transform="matrix(.5 0 0 1 270.453 -32.5)"/>
    <path fill="none" stroke="gray" d="M680 682.557l85-63.494" transform="matrix(.5 0 0 1 270.453 -32.5)"/>
    <path fill="none" stroke="gray" d="M680 682.557l85-42.329" transform="matrix(.5 0 0 1 270.453 -32.5)"/>
    <path fill="none" stroke="gray" d="M680 682.557l85-21.165" transform="matrix(.5 0 0 1 270.453 -32.5)"/>
    <path fill="none" stroke="gray" d="M680 682.557h85" transform="matrix(.5 0 0 1 270.453 -32.5)"/>
    <path fill="none" stroke="gray" d="M680 682.557l85 21.165" transform="matrix(.5 0 0 1 270.453 -32.5)"/>
    <path fill="none" stroke="gray" d="M680 682.557l85 42.329" transform="matrix(.5 0 0 1 270.453 -32.5)"/>
    <path fill="none" stroke="gray" d="M680 682.557l85 63.494" transform="matrix(.5 0 0 1 270.453 -32.5)"/>
    <path fill="none" stroke="gray" d="M595 671.975l85-10.583" transform="matrix(.5 0 0 1 270.453 -32.5)"/>
    <path fill="none" stroke="gray" d="M595 671.975l85 10.582" transform="matrix(.5 0 0 1 270.453 -32.5)"/>
    <path fill="none" stroke="gray" d="M510 671.975h85" transform="matrix(.5 0 0 1 270.453 -32.5)"/>
    <path fill="none" stroke="gray" d="M425 671.975h85" transform="matrix(.5 0 0 1 270.453 -32.5)"/>
    <path fill="none" stroke="gray" d="M425 629.646h85" transform="matrix(.5 0 0 1 270.453 -32.5)"/>
    <path fill="none" stroke="gray" d="M340 709.013l85-79.367" transform="matrix(.5 0 0 1 270.453 -32.5)"/>
    <path fill="none" stroke="gray" d="M340 709.013l85-37.038" transform="matrix(.5 0 0 1 270.453 -32.5)"/>
    <path fill="none" stroke="gray" d="M340 709.013l85 37.038" transform="matrix(.5 0 0 1 270.453 -32.5)"/>
    <path fill="none" stroke="gray" d="M340 709.013l85 58.202" transform="matrix(.5 0 0 1 270.453 -32.5)"/>
    <path fill="none" stroke="gray" d="M340 709.013l85 79.367" transform="matrix(.5 0 0 1 270.453 -32.5)"/>
    <path fill="none" stroke="gray" d="M255 759.278l85-71.43" transform="matrix(.5 0 0 1 270.453 -32.5)"/>
    <path fill="none" stroke="gray" d="M255 759.278l85-50.265" transform="matrix(.5 0 0 1 270.453 -32.5)"/>
    <path fill="none" stroke="gray" d="M255 759.278l85 71.431" transform="matrix(.5 0 0 1 270.453 -32.5)"/>
    <path fill="none" stroke="gray" d="M170 759.278h85" transform="matrix(.5 0 0 1 270.453 -32.5)"/>
    <path fill="none" stroke="gray" d="M255 645.519h85" transform="matrix(.5 0 0 1 270.453 -32.5)"/>
    <path fill="none" stroke="gray" d="M255 603.19h85" transform="matrix(.5 0 0 1 270.453 -32.5)"/>
    <path fill="none" stroke="gray" d="M170 624.354l85-21.164" transform="matrix(.5 0 0 1 270.453 -32.5)"/>
    <path fill="none" stroke="gray" d="M170 624.354l85 21.165" transform="matrix(.5 0 0 1 270.453 -32.5)"/>
    <path fill="none" stroke="gray" d="M85 723.563l85-99.209" transform="matrix(.5 0 0 1 270.453 -32.5)"/>
    <path fill="none" stroke="gray" d="M85 723.563l85-31.747" transform="matrix(.5 0 0 1 270.453 -32.5)"/>
    <path fill="none" stroke="gray" d="M85 723.563l85 35.715" transform="matrix(.5 0 0 1 270.453 -32.5)"/>
    <path fill="none" stroke="gray" d="M85 723.563l85 56.88" transform="matrix(.5 0 0 1 270.453 -32.5)"/>
    <path fill="none" stroke="gray" d="M85 723.563l85 78.045" transform="matrix(.5 0 0 1 270.453 -32.5)"/>
    <path fill="none" stroke="gray" d="M85 723.563l85 99.209" transform="matrix(.5 0 0 1 270.453 -32.5)"/>
    <path fill="none" stroke="gray" d="M510 534.405h85" transform="matrix(.5 0 0 1 270.453 -32.5)"/>
    <path fill="none" stroke="gray" d="M595 492.076h85" transform="matrix(.5 0 0 1 270.453 -32.5)"/>
    <path fill="none" stroke="gray" d="M510 492.076h85" transform="matrix(.5 0 0 1 270.453 -32.5)"/>
    <path fill="none" stroke="gray" d="M595 428.582h85" transform="matrix(.5 0 0 1 270.453 -43.082)"/>
    <path fill="none" stroke="gray" d="M595 386.253h85" transform="matrix(.5 0 0 1 270.453 -32.5)"/>
    <path fill="none" stroke="gray" d="M510 418l85-31.747" transform="matrix(.5 0 0 1 270.453 -32.5)"/>
    <path fill="none" stroke="gray" d="M510 418h85" transform="matrix(.5 0 0 1 270.453 -32.5)"/>
    <path fill="none" stroke="gray" d="M510 418l85 31.747" transform="matrix(.5 0 0 1 270.453 -32.5)"/>
    <path fill="none" stroke="gray" d="M425 476.203L510 418" transform="matrix(.5 0 0 1 270.453 -32.5)"/>
    <path fill="none" stroke="gray" d="M425 476.203l85 15.873" transform="matrix(.5 0 0 1 270.453 -32.5)"/>
    <path fill="none" stroke="gray" d="M425 476.203l85 58.202" transform="matrix(.5 0 0 1 270.453 -32.5)"/>
    <path fill="none" stroke="gray" d="M340 476.203h85" transform="matrix(.5 0 0 1 270.453 -32.5)"/>
    <path fill="none" stroke="gray" d="M255 497.367l85-63.494" transform="matrix(.5 0 0 1 270.453 -32.5)"/>
    <path fill="none" stroke="gray" d="M255 497.367l85-42.329" transform="matrix(.5 0 0 1 270.453 -32.5)"/>
    <path fill="none" stroke="gray" d="M255 497.367l85-21.164" transform="matrix(.5 0 0 1 270.453 -32.5)"/>
    <path fill="none" stroke="gray" d="M255 497.367h85" transform="matrix(.5 0 0 1 270.453 -32.5)"/>
    <path fill="none" stroke="gray" d="M255 497.367l85 21.165" transform="matrix(.5 0 0 1 270.453 -32.5)"/>
    <path fill="none" stroke="gray" d="M255 497.367l85 42.329" transform="matrix(.5 0 0 1 270.453 -32.5)"/>
    <path fill="none" stroke="gray" d="M255 497.367l85 63.494" transform="matrix(.5 0 0 1 270.453 -32.5)"/>
    <path fill="none" stroke="gray" d="M170 507.949l85-10.582" transform="matrix(.5 0 0 1 270.453 -32.5)"/>
    <path fill="none" stroke="gray" d="M170 507.949l85 10.583" transform="matrix(.5 0 0 1 270.453 -32.5)"/>
    <path fill="none" stroke="gray" d="M85 497.367l85-10.582" transform="matrix(.5 0 0 1 270.453 -32.5)"/>
    <path fill="none" stroke="gray" d="M85 497.367l85 10.582" transform="matrix(.5 0 0 1 270.453 -32.5)"/>
    <path fill="none" stroke="gray" d="M340 391.544h85" transform="matrix(.5 0 0 1 270.453 -32.5)"/>
    <path fill="none" stroke="gray" d="M340 349.215h85" transform="matrix(.5 0 0 1 270.453 -32.5)"/>
    <path fill="none" stroke="gray" d="M340 306.886h85" transform="matrix(.5 0 0 1 270.453 -32.5)"/>
    <path fill="none" stroke="gray" d="M255 338.633l85-52.911" transform="matrix(.5 0 0 1 270.453 -32.5)"/>
    <path fill="none" stroke="gray" d="M255 338.633l85-31.747" transform="matrix(.5 0 0 1 270.453 -32.5)"/>
    <path fill="none" stroke="gray" d="M255 338.633l85-10.582" transform="matrix(.5 0 0 1 270.453 -32.5)"/>
    <path fill="none" stroke="gray" d="M255 338.633l85 10.582" transform="matrix(.5 0 0 1 270.453 -32.5)"/>
    <path fill="none" stroke="gray" d="M255 338.633l85 31.747" transform="matrix(.5 0 0 1 270.453 -32.5)"/>
    <path fill="none" stroke="gray" d="M255 338.633l85 52.911" transform="matrix(.5 0 0 1 270.453 -32.5)"/>
    <path fill="none" stroke="gray" d="M170 338.633h85" transform="matrix(.5 0 0 1 270.453 -32.5)"/>
    <path fill="none" stroke="gray" d="M85 338.633h85" transform="matrix(.5 0 0 1 270.453 -32.5)"/>
    <path fill="none" stroke="gray" d="M170 275.139h85" transform="matrix(.5 0 0 1 270.453 -32.5)"/>
    <path fill="none" stroke="gray" d="M255 232.81h85" transform="matrix(.5 0 0 1 270.453 -32.5)"/>
    <path fill="none" stroke="gray" d="M170 232.81h85" transform="matrix(.5 0 0 1 270.453 -32.5)"/>
    <path fill="none" stroke="gray" d="M85 253.975l85-42.329" transform="matrix(.5 0 0 1 270.453 -32.5)"/>
    <path fill="none" stroke="gray" d="M85 253.975l85-21.165" transform="matrix(.5 0 0 1 270.453 -32.5)"/>
    <path fill="none" stroke="gray" d="M85 253.975h85" transform="matrix(.5 0 0 1 270.453 -32.5)"/>
    <path fill="none" stroke="gray" d="M85 253.975l85 21.164" transform="matrix(.5 0 0 1 270.453 -32.5)"/>
    <path fill="none" stroke="gray" d="M85 253.975l85 42.329" transform="matrix(.5 0 0 1 270.453 -32.5)"/>
    <path fill="none" stroke="gray" d="M85 126.987l85-42.329" transform="matrix(.5 0 0 1 270.453 -32.5)"/>
    <path fill="none" stroke="gray" d="M85 126.987l85-21.164" transform="matrix(.5 0 0 1 270.453 -32.5)"/>
    <path fill="none" stroke="gray" d="M85 126.987h85" transform="matrix(.5 0 0 1 270.453 -32.5)"/>
    <path fill="none" stroke="gray" d="M85 126.987l85 21.165" transform="matrix(.5 0 0 1 270.453 -32.5)"/>
    <path fill="none" stroke="gray" d="M85 126.987l85 42.329" transform="matrix(.5 0 0 1 270.453 -32.5)"/>
    <path fill="none" stroke="gray" d="M510 74.076h85" transform="matrix(.5 0 0 1 270.453 -32.5)"/>
    <path fill="none" stroke="gray" d="M425 74.076h85" transform="matrix(.5 0 0 1 270.453 -32.5)"/>
    <path fill="none" stroke="gray" d="M340 63.494l85-10.583" transform="matrix(.5 0 0 1 270.453 -32.5)"/>
    <path fill="none" stroke="gray" d="M340 63.494l85 10.582" transform="matrix(.5 0 0 1 270.453 -32.5)"/>
    <path fill="none" stroke="gray" d="M255 63.494h85" transform="matrix(.5 0 0 1 270.453 -32.5)"/>
    <path fill="none" stroke="gray" d="M170 42.329l85-21.164" transform="matrix(.5 0 0 1 270.453 -32.5)"/>
    <path fill="none" stroke="gray" d="M170 42.329h85" transform="matrix(.5 0 0 1 270.453 -32.5)"/>
    <path fill="none" stroke="gray" d="M170 42.329l85 21.165" transform="matrix(.5 0 0 1 270.453 -32.5)"/>
    <path fill="none" stroke="gray" d="M85 31.747l85-10.582" transform="matrix(.5 0 0 1 270.453 -32.5)"/>
    <path fill="none" stroke="gray" d="M85 31.747l85 10.582" transform="matrix(.5 0 0 1 270.453 -32.5)"/>
    <path fill="none" stroke="gray" d="M227.953 495.291l85-496.044"/>
    <path fill="none" stroke="gray" d="M227.953 495.291l85-400.804"/>
    <path fill="none" stroke="gray" d="M227.953 495.291l85-369.057"/>
    <path fill="none" stroke="gray" d="M227.953 495.291l85-337.31"/>
    <path fill="none" stroke="gray" d="M227.953 495.291l85-305.563"/>
    <path fill="none" stroke="gray" d="M227.953 495.291l85-273.816"/>
    <path fill="none" stroke="gray" d="M227.953 495.291l85-189.158"/>
    <path fill="none" stroke="gray" d="M227.953 495.291l85-30.424"/>
    <path fill="none" stroke="gray" d="M227.953 495.291l85-7.804"/>
    <path fill="none" stroke="gray" d="M227.953 495.291l85 14.815"/>
    <path fill="none" stroke="gray" d="M227.953 495.291l85 37.435"/>
    <path fill="none" stroke="gray" d="M227.953 495.291l85 60.055"/>
    <path fill="none" stroke="gray" d="M227.953 495.291l85 82.674"/>
    <path fill="none" stroke="gray" d="M227.953 495.291l85 105.294"/>
    <path fill="none" stroke="gray" d="M227.953 495.291l85 127.913"/>
    <path fill="none" stroke="gray" d="M227.953 495.291l85 150.533"/>
    <path fill="none" stroke="gray" d="M227.953 495.291l85 173.153"/>
    <path fill="none" stroke="gray" d="M227.953 495.291l85 195.772"/>
    <path fill="none" stroke="gray" d="M227.953 495.291l85 337.31"/>
    <path fill="none" stroke="gray" d="M227.953 495.291l85 390.222"/>
    <path fill="none" stroke="gray" d="M227.953 495.291l85 411.386"/>
    <path fill="none" stroke="gray" d="M227.953 495.291l85 432.551"/>
    <path fill="none" stroke="gray" d="M227.953 495.291l85 453.715"/>
    <path fill="none" stroke="gray" d="M227.953 495.291l85 474.879"/>
    <path fill="none" stroke="gray" d="M227.953 495.291l85 496.049"/>
    <circle id="node_phluorin-ecliptic" r="5" fill="#2d2d2d" transform="translate(312.953 991.335)"/>
    <circle id="node_phluorin2" r="5" fill="#2d2d2d" transform="translate(355.453 970.171)"/>
    <circle id="node_phluorin-ratiometric" r="5" fill="#2d2d2d" transform="translate(312.953 970.171)"/>
    <circle id="node_10b" r="5" fill="#2d2d2d" transform="translate(312.953 949.006)"/>
    <circle id="node_mpa-gfp" r="5" fill="#2d2d2d" transform="translate(355.453 927.842)"/>
    <circle id="node_pa-gfp" r="5" fill="#2d2d2d" transform="translate(312.953 927.842)"/>
    <circle id="node_topaz" r="5" fill="#2d2d2d" transform="translate(312.953 906.677)"/>
    <circle id="node_mclover15" r="5" fill="#2d2d2d" transform="translate(397.953 896.095)"/>
    <circle id="node_dclover2-a206k" r="5" fill="#2d2d2d" transform="translate(440.453 885.513)"/>
    <circle id="node_mclover3" r="5" fill="#2d2d2d" transform="translate(440.453 864.348)"/>
    <circle id="node_dclover2" r="5" fill="#2d2d2d" transform="translate(397.953 874.93)"/>
    <circle id="node_clover15" r="5" fill="#2d2d2d" transform="translate(355.453 885.513)"/>
    <circle id="node_clover" r="5" fill="#2d2d2d" transform="translate(312.953 885.513)"/>
    <circle id="node_mt-sapphire" r="5" fill="#2d2d2d" transform="translate(397.953 832.601)"/>
    <circle id="node_t-sapphire" r="5" fill="#2d2d2d" transform="translate(355.453 832.601)"/>
    <circle id="node_sapphire" r="5" fill="#2d2d2d" transform="translate(312.953 832.601)"/>
    <circle id="node_meyfp" r="5" fill="#2d2d2d" transform="translate(355.453 790.272)"/>
    <circle id="node_yfp3" r="5" fill="#2d2d2d" transform="translate(397.953 769.108)"/>
    <circle id="node_eyfp-f46l" r="5" fill="#2d2d2d" transform="translate(355.453 769.108)"/>
    <circle id="node_shardonnay" r="5" fill="#2d2d2d" transform="translate(355.453 747.943)"/>
    <circle id="node_moxvenus" r="5" fill="#2d2d2d" transform="translate(482.953 798.209)"/>
    <circle id="node_oxvenus" r="5" fill="#2d2d2d" transform="translate(440.453 798.209)"/>
    <circle id="node_mvenus-q69m" r="5" fill="#2d2d2d" transform="translate(482.953 755.88)"/>
    <circle id="node_syfp2" r="5" fill="#2d2d2d" transform="translate(482.953 734.715)"/>
    <circle id="node_sgfp2t65g" r="5" fill="#2d2d2d" transform="translate(567.953 745.297)"/>
    <circle id="node_sgfp2e222q" r="5" fill="#2d2d2d" transform="translate(567.953 724.133)"/>
    <circle id="node_sgfp2206a" r="5" fill="#2d2d2d" transform="translate(567.953 702.968)"/>
    <circle id="node_cfsgfp2" r="5" fill="#2d2d2d" transform="translate(567.953 681.804)"/>
    <circle id="node_sgfp2" r="5" fill="#2d2d2d" transform="translate(525.453 713.551)"/>
    <circle id="node_sgfp1" r="5" fill="#2d2d2d" transform="translate(482.953 713.551)"/>
    <circle id="node_mturquoise-146s" r="5" fill="#2d2d2d" transform="translate(652.953 713.551)"/>
    <circle id="node_mturquoise-146g" r="5" fill="#2d2d2d" transform="translate(652.953 692.386)"/>
    <circle id="node_superfolder-mturquoise2-ox" r="5" fill="#2d2d2d" transform="translate(737.953 681.513)"/>
    <circle id="node_superfolder-mturquoise2" r="5" fill="#2d2d2d" transform="translate(695.453 681.804)"/>
    <circle id="node_mturquoise2-g" r="5" fill="#2d2d2d" transform="translate(695.453 660.639)"/>
    <circle id="node_mturquoise2" r="5" fill="#2d2d2d" transform="translate(652.953 671.221)"/>
    <circle id="node_mturquoise-ra" r="5" fill="#2d2d2d" transform="translate(652.953 650.057)"/>
    <circle id="node_mturquoise-gv" r="5" fill="#2d2d2d" transform="translate(652.953 628.892)"/>
    <circle id="node_mturquoise-gl" r="5" fill="#2d2d2d" transform="translate(652.953 607.728)"/>
    <circle id="node_mturquoise-dr" r="5" fill="#2d2d2d" transform="translate(652.953 586.563)"/>
    <circle id="node_mturquoise" r="5" fill="#2d2d2d" transform="translate(610.453 650.057)"/>
    <circle id="node_scfp3b" r="5" fill="#2d2d2d" transform="translate(610.453 628.892)"/>
    <circle id="node_scfp3a" r="5" fill="#2d2d2d" transform="translate(567.953 639.475)"/>
    <circle id="node_scfp2" r="5" fill="#2d2d2d" transform="translate(525.453 639.475)"/>
    <circle id="node_scfp1" r="5" fill="#2d2d2d" transform="translate(482.953 639.475)"/>
    <circle id="node_sbfp2" r="5" fill="#2d2d2d" transform="translate(525.453 597.146)"/>
    <circle id="node_sbfp1" r="5" fill="#2d2d2d" transform="translate(482.953 597.146)"/>
    <circle id="node_mvenus" r="5" fill="#2d2d2d" transform="translate(440.453 676.513)"/>
    <circle id="node_ypet" r="5" fill="#2d2d2d" transform="translate(440.453 655.348)"/>
    <circle id="node_venus" r="5" fill="#2d2d2d" transform="translate(397.953 726.779)"/>
    <circle id="node_seyfp" r="5" fill="#2d2d2d" transform="translate(355.453 726.779)"/>
    <circle id="node_eyfp-q69k" r="5" fill="#2d2d2d" transform="translate(355.453 659.316)"/>
    <circle id="node_citrine2" r="5" fill="#2d2d2d" transform="translate(440.453 613.019)"/>
    <circle id="node_mcitrine" r="5" fill="#2d2d2d" transform="translate(397.953 613.019)"/>
    <circle id="node_spoon" r="5" fill="#2d2d2d" transform="translate(440.453 570.69)"/>
    <circle id="node_dreiklang" r="5" fill="#2d2d2d" transform="translate(397.953 570.69)"/>
    <circle id="node_citrine" r="5" fill="#2d2d2d" transform="translate(355.453 591.854)"/>
    <circle id="node_eyfp" r="5" fill="#2d2d2d" transform="translate(312.953 691.063)"/>
    <circle id="node_11" r="5" fill="#2d2d2d" transform="translate(312.953 668.444)"/>
    <circle id="node_gfpmut3" r="5" fill="#2d2d2d" transform="translate(312.953 645.824)"/>
    <circle id="node_gfpmut2" r="5" fill="#2d2d2d" transform="translate(312.953 623.204)"/>
    <circle id="node_rsgfp7" r="5" fill="#2d2d2d" transform="translate(312.953 600.585)"/>
    <circle id="node_rsgfp6" r="5" fill="#2d2d2d" transform="translate(312.953 577.965)"/>
    <circle id="node_rsgfp4" r="5" fill="#2d2d2d" transform="translate(312.953 555.346)"/>
    <circle id="node_rsgfp3" r="5" fill="#2d2d2d" transform="translate(312.953 532.726)"/>
    <circle id="node_rsgfp2" r="5" fill="#2d2d2d" transform="translate(312.953 510.106)"/>
    <circle id="node_rsgfp1" r="5" fill="#2d2d2d" transform="translate(312.953 487.487)"/>
    <circle id="node_w1c" r="5" fill="#2d2d2d" transform="translate(397.953 486.032)"/>
    <circle id="node_ecfp-h148d" r="5" fill="#2d2d2d" transform="translate(440.453 528.361)"/>
    <circle id="node_mecfp" r="5" fill="#2d2d2d" transform="translate(440.453 507.196)"/>
    <circle id="node_d10" r="5" fill="#2d2d2d" transform="translate(440.453 486.032)"/>
    <circle id="node_cypet" r="5" fill="#2d2d2d" transform="translate(440.453 464.867)"/>
    <circle id="node_nowgfp" r="5" fill="#2d2d2d" transform="translate(567.953 501.905)"/>
    <circle id="node_wascfp" r="5" fill="#2d2d2d" transform="translate(525.453 501.905)"/>
    <circle id="node_mceruleanb24" r="5" fill="#2d2d2d" transform="translate(610.453 459.576)"/>
    <circle id="node_mceruleanb2" r="5" fill="#2d2d2d" transform="translate(567.953 459.576)"/>
    <circle id="node_mceruleanb" r="5" fill="#2d2d2d" transform="translate(525.453 459.576)"/>
    <circle id="node_mcerulean2d3" r="5" fill="#2d2d2d" transform="translate(567.953 417.247)"/>
    <circle id="node_moxcerulean3" r="5" fill="#2d2d2d" transform="translate(610.453 385.5)"/>
    <circle id="node_mcerulean3" r="5" fill="#2d2d2d" transform="translate(567.953 385.5)"/>
    <circle id="node_mcerulean2nt65s" r="5" fill="#2d2d2d" transform="translate(610.453 353.753)"/>
    <circle id="node_mcerulean2n" r="5" fill="#2d2d2d" transform="translate(567.953 353.753)"/>
    <circle id="node_mcerulean2" r="5" fill="#2d2d2d" transform="translate(525.453 385.5)"/>
    <circle id="node_mcerulean" r="5" fill="#2d2d2d" transform="translate(482.953 443.703)"/>
    <circle id="node_cerulean" r="5" fill="#2d2d2d" transform="translate(440.453 443.703)"/>
    <circle id="node_cfp4" r="5" fill="#2d2d2d" transform="translate(440.453 422.538)"/>
    <circle id="node_aquamarine" r="5" fill="#2d2d2d" transform="translate(440.453 401.373)"/>
    <circle id="node_ecfp" r="5" fill="#2d2d2d" transform="translate(397.953 464.867)"/>
    <circle id="node_w7" r="5" fill="#2d2d2d" transform="translate(355.453 475.449)"/>
    <circle id="node_w2" r="5" fill="#2d2d2d" transform="translate(355.453 454.285)"/>
    <circle id="node_cfp" r="5" fill="#2d2d2d" transform="translate(312.953 464.867)"/>
    <circle id="node_rsfolder2" r="5" fill="#2d2d2d" transform="translate(482.953 359.044)"/>
    <circle id="node_rsfolder" r="5" fill="#2d2d2d" transform="translate(440.453 359.044)"/>
    <circle id="node_vsfgfp-0" r="5" fill="#2d2d2d" transform="translate(440.453 337.88)"/>
    <circle id="node_mugfp" r="5" fill="#2d2d2d" transform="translate(482.953 316.715)"/>
    <circle id="node_usgfp" r="5" fill="#2d2d2d" transform="translate(440.453 316.715)"/>
    <circle id="node_vsgfp" r="5" fill="#2d2d2d" transform="translate(440.453 295.551)"/>
    <circle id="node_moxgfp" r="5" fill="#2d2d2d" transform="translate(482.953 274.386)"/>
    <circle id="node_oxgfp" r="5" fill="#2d2d2d" transform="translate(440.453 274.386)"/>
    <circle id="node_vsfgfp-9" r="5" fill="#2d2d2d" transform="translate(440.453 253.222)"/>
    <circle id="node_superfolder-gfp" r="5" fill="#2d2d2d" transform="translate(397.953 306.133)"/>
    <circle id="node_folding-reporter-gfp" r="5" fill="#2d2d2d" transform="translate(355.453 306.133)"/>
    <circle id="node_alphagfp" r="5" fill="#2d2d2d" transform="translate(312.953 306.133)"/>
    <circle id="node_bruslee" r="5" fill="#2d2d2d" transform="translate(355.453 263.804)"/>
    <circle id="node_memerald" r="5" fill="#2d2d2d" transform="translate(397.953 242.639)"/>
    <circle id="node_emerald" r="5" fill="#2d2d2d" transform="translate(355.453 242.639)"/>
    <circle id="node_mkalama1" r="5" fill="#2d2d2d" transform="translate(355.453 221.475)"/>
    <circle id="node_rsegfp2" r="5" fill="#2d2d2d" transform="translate(440.453 200.31)"/>
    <circle id="node_rsegfp" r="5" fill="#2d2d2d" transform="translate(397.953 200.31)"/>
    <circle id="node_megfp" r="5" fill="#2d2d2d" transform="translate(355.453 200.31)"/>
    <circle id="node_mametrine" r="5" fill="#2d2d2d" transform="translate(355.453 179.146)"/>
    <circle id="node_egfp" r="5" fill="#2d2d2d" transform="translate(312.953 221.475)"/>
    <circle id="node_p9" r="5" fill="#2d2d2d" transform="translate(312.953 189.728)"/>
    <circle id="node_p11" r="5" fill="#2d2d2d" transform="translate(312.953 157.981)"/>
    <circle id="node_h9" r="5" fill="#2d2d2d" transform="translate(312.953 126.234)"/>
    <circle id="node_sg50" r="5" fill="#2d2d2d" transform="translate(355.453 136.816)"/>
    <circle id="node_sg42" r="5" fill="#2d2d2d" transform="translate(355.453 115.652)"/>
    <circle id="node_sg25" r="5" fill="#2d2d2d" transform="translate(355.453 94.487)"/>
    <circle id="node_sg12" r="5" fill="#2d2d2d" transform="translate(355.453 73.323)"/>
    <circle id="node_sg11" r="5" fill="#2d2d2d" transform="translate(355.453 52.158)"/>
    <circle id="node_q80r" r="5" fill="#2d2d2d" transform="translate(312.953 94.487)"/>
    <circle id="node_moxbfp" r="5" fill="#2d2d2d" transform="translate(567.953 41.576)"/>
    <circle id="node_oxbfp" r="5" fill="#2d2d2d" transform="translate(525.453 41.576)"/>
    <circle id="node_ebfp2" r="5" fill="#2d2d2d" transform="translate(482.953 41.576)"/>
    <circle id="node_ebfp15" r="5" fill="#2d2d2d" transform="translate(482.953 20.411)"/>
    <circle id="node_ebfp12" r="5" fill="#2d2d2d" transform="translate(440.453 30.994)"/>
    <circle id="node_ebfp" r="5" fill="#2d2d2d" transform="translate(397.953 30.994)"/>
    <circle id="node_bfpa5" r="5" fill="#2d2d2d" transform="translate(397.953 9.83)"/>
    <circle id="node_azurite" r="5" fill="#2d2d2d" transform="translate(397.953 -11.335)"/>
    <circle id="node_bfp" r="5" fill="#2d2d2d" transform="translate(355.453 9.83)"/>
    <circle id="node_bfp5" r="5" fill="#2d2d2d" transform="translate(355.453 -11.335)"/>
    <circle id="node_p4" r="5" fill="#2d2d2d" transform="translate(312.953 -.753)"/>
    <g id="avgfp_cover">
      <path id="_12" fill="#ffd92f" stroke="#000" stroke-linecap="round" stroke-linejoin="round" stroke-miterlimit="1.5" stroke-width=".2498321" d="M218.954 495.291a9 9 0 0 0 4.5 7.794l4.5-7.794h-9z" serif:id="12"/>
      <path id="_8" fill="#a6d854" stroke="#000" stroke-linecap="round" stroke-linejoin="round" stroke-miterlimit="1.5" stroke-width=".2498321" d="M232.454 503.085a9 9 0 0 1-9 0l4.5-7.794 4.5 7.794z" serif:id="8"/>
      <path id="_4" fill="#e78ac3" stroke="#000" stroke-linecap="round" stroke-linejoin="round" stroke-miterlimit="1.5" stroke-width=".2498321" d="M236.953 495.291a9 9 0 0 1-4.5 7.794l-4.5-7.794h9z" serif:id="4"/>
      <path id="_3" fill="#8da0cb" stroke="#000" stroke-linecap="round" stroke-linejoin="round" stroke-miterlimit="1.5" stroke-width=".2498321" d="M236.953 495.291a9 9 0 0 0-4.5-7.794l-4.5 7.794h9z" serif:id="3"/>
      <path id="_2" fill="#fc8d62" stroke="#000" stroke-linecap="round" stroke-linejoin="round" stroke-miterlimit="1.5" stroke-width=".2498321" d="M232.454 487.497a9 9 0 0 0-9 0l4.5 7.794 4.5-7.794z" serif:id="2"/>
      <path id="_1" fill="#66c2a5" stroke="#000" stroke-linecap="round" stroke-linejoin="round" stroke-miterlimit="1.5" stroke-width=".2498321" d="M218.954 495.291a9 9 0 0 1 4.5-7.794l4.5 7.794h-9z" serif:id="1"/>
    </g>
    <circle id="node_avgfp" r="5" fill="#24c2da" stroke="#000" stroke-linejoin="round" stroke-miterlimit="2" stroke-width=".35" transform="translate(227.953 495.291)"/>
    <g id="cover_key" transform="translate(227.953 -32.5)">
      <g id="cover_key1" serif:id="cover_key">
        <path fill="#ffd92f" stroke="#231f20" stroke-linecap="round" stroke-linejoin="round" stroke-miterlimit="1.5" stroke-width=".9516488" d="M403.433 71.948a55.783 55.783 0 0 0 27.892 48.31l27.892-48.31h-55.784z"/>
        <path fill="#a6d854" stroke="#231f20" stroke-linecap="round" stroke-linejoin="round" stroke-miterlimit="1.5" stroke-width=".9516488" d="M487.109 120.258a55.783 55.783 0 0 1-55.784 0l27.892-48.31 27.892 48.31z"/>
        <path fill="#e78ac3" stroke="#231f20" stroke-linecap="round" stroke-linejoin="round" stroke-miterlimit="1.5" stroke-width=".9516488" d="M515 71.948a55.783 55.783 0 0 1-27.892 48.31l-27.892-48.31H515z"/>
        <path fill="#8da0cb" stroke="#231f20" stroke-linecap="round" stroke-linejoin="round" stroke-miterlimit="1.5" stroke-width=".9516488" d="M515 71.948a55.783 55.783 0 0 0-27.892-48.31l-27.892 48.31H515z"/>
        <path fill="#fc8d62" stroke="#231f20" stroke-linecap="round" stroke-linejoin="round" stroke-miterlimit="1.5" stroke-width=".9516488" d="M487.109 23.638a55.783 55.783 0 0 0-55.784 0l27.892 48.31 27.892-48.31z"/>
        <path fill="#66c2a5" stroke="#231f20" stroke-linecap="round" stroke-linejoin="round" stroke-miterlimit="1.5" stroke-width=".9516488" d="M403.433 71.948a55.783 55.783 0 0 1 27.892-48.31l27.892 48.31h-55.784z"/>
      </g>
      <text x="2107.24" y="184.466" fill="#231f20" font-family="'Avenir-Book','Avenir'" font-size="50" transform="rotate(-90 621.86 259.722) scale(.39002)">
        1
      </text>
      <text x="2202.45" y="245.619" fill="#231f20" font-family="'Avenir-Book','Avenir'" font-size="50" transform="rotate(-90 634.194 263.752) scale(.39002)">
        2
      </text>
      <text x="2277.08" y="299.898" fill="#231f20" font-family="'Avenir-Book','Avenir'" font-size="50" transform="rotate(-90 664.705 281.83) scale(.39002)">
        3
      </text>
      <text x="2320.39" y="343.2" fill="#231f20" font-family="'Avenir-Book','Avenir'" font-size="50" transform="rotate(-90 684.034 317.813) scale(.39002)">
        4
      </text>
      <text x="2293.13" y="475.072" fill="#231f20" font-family="'Avenir-Book','Avenir'" font-size="50" transform="rotate(-90 645.443 364.493) scale(.39002)">
        8
      </text>
      <text x="2356.05" y="541.102" fill="#231f20" font-family="'Avenir-Book','Avenir'" font-size="50" transform="rotate(-90 622.334 399.292) scale(.39002)">
        12
      </text>
    </g>
    <g transform="translate(227.953 -32.5)">
      <text x="2293.13" y="475.072" fill="#231f20" font-family="'Avenir-Book','Avenir'" font-size="50" transform="rotate(-90 725.176 461.29) scale(.39002)">
        238 amino acids
      </text>
      <text x="2293.13" y="475.072" fill="#231f20" font-family="'Avenir-Book','Avenir'" font-size="50" transform="rotate(-90 742.3 444.167) scale(.39002)">
        239 amino acids
      </text>
      <circle id="_238_aa" r="5" fill="#24c2da" transform="translate(442.269 324.841) scale(2.75516)" serif:id="238_aa"/>
      <circle id="_239_aa" r="5" fill="#4544b7" transform="translate(476.164 324.841) scale(2.75516)" serif:id="239_aa"/>
    </g>
  </g>
</svg>
