<svg baseProfile="full" height="1000" version="1.1" width="1100" xmlns="http://www.w3.org/2000/svg"><g transform="rotate(90,250, 540) translate(-270 -250)" width="935"><path class="link" d="M85,1002.6708860759493L170,1002.6708860759493" fill="none" stroke="gray"/><path class="link" d="M85,960.3417721518987L170,960.3417721518987" fill="none" stroke="gray"/><path class="link" d="M255,907.4303797468355L340,896.8481012658227" fill="none" stroke="gray"/><path class="link" d="M255,907.4303797468355L340,918.0126582278481" fill="none" stroke="gray"/><path class="link" d="M170,918.0126582278481L255,907.4303797468355" fill="none" stroke="gray"/><path class="link" d="M170,918.0126582278481L255,928.5949367088607" fill="none" stroke="gray"/><path class="link" d="M85,918.0126582278481L170,918.0126582278481" fill="none" stroke="gray"/><path class="link" d="M170,865.1012658227847L255,865.1012658227847" fill="none" stroke="gray"/><path class="link" d="M85,865.1012658227847L170,865.1012658227847" fill="none" stroke="gray"/><path class="link" d="M170,801.6075949367088L255,801.6075949367088" fill="none" stroke="gray"/><path class="link" d="M340,830.7088607594936L425,830.7088607594936" fill="none" stroke="gray"/><path class="link" d="M510,746.0506329113924L595,714.3037974683544" fill="none" stroke="gray"/><path class="link" d="M510,746.0506329113924L595,735.4683544303797" fill="none" stroke="gray"/><path class="link" d="M510,746.0506329113924L595,756.632911392405" fill="none" stroke="gray"/><path class="link" d="M510,746.0506329113924L595,777.7974683544303" fill="none" stroke="gray"/><path class="link" d="M425,746.0506329113924L510,746.0506329113924" fill="none" stroke="gray"/><path class="link" d="M850,714.3037974683544L935,714.3037974683544" fill="none" stroke="gray"/><path class="link" d="M765,703.7215189873417L850,693.1392405063291" fill="none" stroke="gray"/><path class="link" d="M765,703.7215189873417L850,714.3037974683544" fill="none" stroke="gray"/><path class="link" d="M680,682.5569620253165L765,619.0632911392404" fill="none" stroke="gray"/><path class="link" d="M680,682.5569620253165L765,640.2278481012657" fill="none" stroke="gray"/><path class="link" d="M680,682.5569620253165L765,661.392405063291" fill="none" stroke="gray"/><path class="link" d="M680,682.5569620253165L765,682.5569620253165" fill="none" stroke="gray"/><path class="link" d="M680,682.5569620253165L765,703.7215189873417" fill="none" stroke="gray"/><path class="link" d="M680,682.5569620253165L765,724.8860759493671" fill="none" stroke="gray"/><path class="link" d="M680,682.5569620253165L765,746.0506329113924" fill="none" stroke="gray"/><path class="link" d="M595,671.9746835443037L680,661.392405063291" fill="none" stroke="gray"/><path class="link" d="M595,671.9746835443037L680,682.5569620253165" fill="none" stroke="gray"/><path class="link" d="M510,671.9746835443037L595,671.9746835443037" fill="none" stroke="gray"/><path class="link" d="M425,671.9746835443037L510,671.9746835443037" fill="none" stroke="gray"/><path class="link" d="M425,629.645569620253L510,629.645569620253" fill="none" stroke="gray"/><path class="link" d="M340,709.0126582278481L425,629.645569620253" fill="none" stroke="gray"/><path class="link" d="M340,709.0126582278481L425,671.9746835443037" fill="none" stroke="gray"/><path class="link" d="M340,709.0126582278481L425,746.0506329113924" fill="none" stroke="gray"/><path class="link" d="M340,709.0126582278481L425,767.2151898734177" fill="none" stroke="gray"/><path class="link" d="M340,709.0126582278481L425,788.379746835443" fill="none" stroke="gray"/><path class="link" d="M255,759.2784810126582L340,687.8481012658227" fill="none" stroke="gray"/><path class="link" d="M255,759.2784810126582L340,709.0126582278481" fill="none" stroke="gray"/><path class="link" d="M255,759.2784810126582L340,830.7088607594936" fill="none" stroke="gray"/><path class="link" d="M170,759.2784810126582L255,759.2784810126582" fill="none" stroke="gray"/><path class="link" d="M255,645.518987341772L340,645.518987341772" fill="none" stroke="gray"/><path class="link" d="M255,603.1898734177214L340,603.1898734177214" fill="none" stroke="gray"/><path class="link" d="M170,624.3544303797468L255,603.1898734177214" fill="none" stroke="gray"/><path class="link" d="M170,624.3544303797468L255,645.518987341772" fill="none" stroke="gray"/><path class="link" d="M85,723.5632911392405L170,624.3544303797468" fill="none" stroke="gray"/><path class="link" d="M85,723.5632911392405L170,691.8164556962025" fill="none" stroke="gray"/><path class="link" d="M85,723.5632911392405L170,759.2784810126582" fill="none" stroke="gray"/><path class="link" d="M85,723.5632911392405L170,780.4430379746835" fill="none" stroke="gray"/><path class="link" d="M85,723.5632911392405L170,801.6075949367088" fill="none" stroke="gray"/><path class="link" d="M85,723.5632911392405L170,822.7721518987341" fill="none" stroke="gray"/><path class="link" d="M510,534.4050632911392L595,534.4050632911392" fill="none" stroke="gray"/><path class="link" d="M595,492.0759493670886L680,492.0759493670886" fill="none" stroke="gray"/><path class="link" d="M510,492.0759493670886L595,492.0759493670886" fill="none" stroke="gray"/><path class="link" d="M595,428.5822784810126L680,428.5822784810126" fill="none" stroke="gray"/><path class="link" d="M595,386.253164556962L680,386.253164556962" fill="none" stroke="gray"/><path class="link" d="M510,418L595,386.253164556962" fill="none" stroke="gray"/><path class="link" d="M510,418L595,428.5822784810126" fill="none" stroke="gray"/><path class="link" d="M510,418L595,449.746835443038" fill="none" stroke="gray"/><path class="link" d="M425,476.2025316455696L510,418" fill="none" stroke="gray"/><path class="link" d="M425,476.2025316455696L510,492.0759493670886" fill="none" stroke="gray"/><path class="link" d="M425,476.2025316455696L510,534.4050632911392" fill="none" stroke="gray"/><path class="link" d="M340,476.2025316455696L425,476.2025316455696" fill="none" stroke="gray"/><path class="link" d="M255,497.3670886075949L340,433.873417721519" fill="none" stroke="gray"/><path class="link" d="M255,497.3670886075949L340,455.0379746835443" fill="none" stroke="gray"/><path class="link" d="M255,497.3670886075949L340,476.2025316455696" fill="none" stroke="gray"/><path class="link" d="M255,497.3670886075949L340,497.3670886075949" fill="none" stroke="gray"/><path class="link" d="M255,497.3670886075949L340,518.5316455696202" fill="none" stroke="gray"/><path class="link" d="M255,497.3670886075949L340,539.6962025316456" fill="none" stroke="gray"/><path class="link" d="M255,497.3670886075949L340,560.8607594936709" fill="none" stroke="gray"/><path class="link" d="M170,507.9493670886076L255,497.3670886075949" fill="none" stroke="gray"/><path class="link" d="M170,507.9493670886076L255,518.5316455696202" fill="none" stroke="gray"/><path class="link" d="M85,497.3670886075949L170,486.7848101265823" fill="none" stroke="gray"/><path class="link" d="M85,497.3670886075949L170,507.9493670886076" fill="none" stroke="gray"/><path class="link" d="M340,391.54430379746833L425,391.54430379746833" fill="none" stroke="gray"/><path class="link" d="M340,349.2151898734177L425,349.2151898734177" fill="none" stroke="gray"/><path class="link" d="M340,306.88607594936707L425,306.88607594936707" fill="none" stroke="gray"/><path class="link" d="M255,338.63291139240505L340,285.72151898734177" fill="none" stroke="gray"/><path class="link" d="M255,338.63291139240505L340,306.88607594936707" fill="none" stroke="gray"/><path class="link" d="M255,338.63291139240505L340,328.05063291139237" fill="none" stroke="gray"/><path class="link" d="M255,338.63291139240505L340,349.2151898734177" fill="none" stroke="gray"/><path class="link" d="M255,338.63291139240505L340,370.37974683544303" fill="none" stroke="gray"/><path class="link" d="M255,338.63291139240505L340,391.54430379746833" fill="none" stroke="gray"/><path class="link" d="M170,338.63291139240505L255,338.63291139240505" fill="none" stroke="gray"/><path class="link" d="M85,338.63291139240505L170,338.63291139240505" fill="none" stroke="gray"/><path class="link" d="M170,275.1392405063291L255,275.1392405063291" fill="none" stroke="gray"/><path class="link" d="M255,232.81012658227849L340,232.81012658227849" fill="none" stroke="gray"/><path class="link" d="M170,232.81012658227849L255,232.81012658227849" fill="none" stroke="gray"/><path class="link" d="M85,253.9746835443038L170,211.64556962025316" fill="none" stroke="gray"/><path class="link" d="M85,253.9746835443038L170,232.81012658227849" fill="none" stroke="gray"/><path class="link" d="M85,253.9746835443038L170,253.9746835443038" fill="none" stroke="gray"/><path class="link" d="M85,253.9746835443038L170,275.1392405063291" fill="none" stroke="gray"/><path class="link" d="M85,253.9746835443038L170,296.30379746835445" fill="none" stroke="gray"/><path class="link" d="M85,126.9873417721519L170,84.65822784810126" fill="none" stroke="gray"/><path class="link" d="M85,126.9873417721519L170,105.82278481012658" fill="none" stroke="gray"/><path class="link" d="M85,126.9873417721519L170,126.9873417721519" fill="none" stroke="gray"/><path class="link" d="M85,126.9873417721519L170,148.15189873417722" fill="none" stroke="gray"/><path class="link" d="M85,126.9873417721519L170,169.31645569620252" fill="none" stroke="gray"/><path class="link" d="M510,74.07594936708861L595,74.07594936708861" fill="none" stroke="gray"/><path class="link" d="M425,74.07594936708861L510,74.07594936708861" fill="none" stroke="gray"/><path class="link" d="M340,63.49367088607595L425,52.91139240506329" fill="none" stroke="gray"/><path class="link" d="M340,63.49367088607595L425,74.07594936708861" fill="none" stroke="gray"/><path class="link" d="M255,63.49367088607595L340,63.49367088607595" fill="none" stroke="gray"/><path class="link" d="M170,42.32911392405063L255,21.164556962025316" fill="none" stroke="gray"/><path class="link" d="M170,42.32911392405063L255,42.32911392405063" fill="none" stroke="gray"/><path class="link" d="M170,42.32911392405063L255,63.49367088607595" fill="none" stroke="gray"/><path class="link" d="M85,31.746835443037973L170,21.164556962025316" fill="none" stroke="gray"/><path class="link" d="M85,31.746835443037973L170,42.32911392405063" fill="none" stroke="gray"/><path class="link" d="M0,527.7911392405063L85,31.746835443037973" fill="none" stroke="gray"/><path class="link" d="M0,527.7911392405063L85,126.9873417721519" fill="none" stroke="gray"/><path class="link" d="M0,527.7911392405063L85,158.73417721518987" fill="none" stroke="gray"/><path class="link" d="M0,527.7911392405063L85,190.48101265822783" fill="none" stroke="gray"/><path class="link" d="M0,527.7911392405063L85,222.2278481012658" fill="none" stroke="gray"/><path class="link" d="M0,527.7911392405063L85,253.9746835443038" fill="none" stroke="gray"/><path class="link" d="M0,527.7911392405063L85,338.63291139240505" fill="none" stroke="gray"/><path class="link" d="M0,527.7911392405063L85,497.3670886075949" fill="none" stroke="gray"/><path class="link" d="M0,527.7911392405063L85,519.9867088607594" fill="none" stroke="gray"/><path class="link" d="M0,527.7911392405063L85,542.6063291139241" fill="none" stroke="gray"/><path class="link" d="M0,527.7911392405063L85,565.2259493670886" fill="none" stroke="gray"/><path class="link" d="M0,527.7911392405063L85,587.8455696202531" fill="none" stroke="gray"/><path class="link" d="M0,527.7911392405063L85,610.4651898734177" fill="none" stroke="gray"/><path class="link" d="M0,527.7911392405063L85,633.0848101265822" fill="none" stroke="gray"/><path class="link" d="M0,527.7911392405063L85,655.7044303797468" fill="none" stroke="gray"/><path class="link" d="M0,527.7911392405063L85,678.3240506329113" fill="none" stroke="gray"/><path class="link" d="M0,527.7911392405063L85,700.9436708860758" fill="none" stroke="gray"/><path class="link" d="M0,527.7911392405063L85,723.5632911392405" fill="none" stroke="gray"/><path class="link" d="M0,527.7911392405063L85,865.1012658227847" fill="none" stroke="gray"/><path class="link" d="M0,527.7911392405063L85,918.0126582278481" fill="none" stroke="gray"/><path class="link" d="M0,527.7911392405063L85,939.1772151898733" fill="none" stroke="gray"/><path class="link" d="M0,527.7911392405063L85,960.3417721518987" fill="none" stroke="gray"/><path class="link" d="M0,527.7911392405063L85,981.506329113924" fill="none" stroke="gray"/><path class="link" d="M0,527.7911392405063L85,1002.6708860759493" fill="none" stroke="gray"/><path class="link" d="M0,527.7911392405063L85,1023.8354430379746" fill="none" stroke="gray"/><g class="node" id="node_phluorin-ecliptic" transform="translate(85,1023.83544921875)"><circle r="5" style="fill: rgb(45, 45, 45);"/></g><g class="node" id="node_phluorin2" transform="translate(170,1002.6708984375)"><circle r="5" style="fill: rgb(45, 45, 45);"/></g><g class="node" id="node_phluorin-ratiometric" transform="translate(85,1002.6708984375)"><circle r="5" style="fill: rgb(45, 45, 45);"/></g><g class="node" id="node_10b" transform="translate(85,981.50634765625)"><circle r="5" style="fill: rgb(45, 45, 45);"/></g><g class="node" id="node_mpa-gfp" transform="translate(170,960.341796875)"><circle r="5" style="fill: rgb(45, 45, 45);"/></g><g class="node" id="node_pa-gfp" transform="translate(85,960.341796875)"><circle r="5" style="fill: rgb(45, 45, 45);"/></g><g class="node" id="node_topaz" transform="translate(85,939.1771850585938)"><circle r="5" style="fill: rgb(45, 45, 45);"/></g><g class="node" id="node_mclover15" transform="translate(255,928.5949096679688)"><circle r="5" style="fill: rgb(45, 45, 45);"/></g><g class="node" id="node_dclover2-a206k" transform="translate(340,918.0126342773438)"><circle r="5" style="fill: rgb(45, 45, 45);"/></g><g class="node" id="node_mclover3" transform="translate(340,896.8480834960938)"><circle r="5" style="fill: rgb(45, 45, 45);"/></g><g class="node" id="node_dclover2" transform="translate(255,907.4303588867188)"><circle r="5" style="fill: rgb(45, 45, 45);"/></g><g class="node" id="node_clover15" transform="translate(170,918.0126342773438)"><circle r="5" style="fill: rgb(45, 45, 45);"/></g><g class="node" id="node_clover" transform="translate(85,918.0126342773438)"><circle r="5" style="fill: rgb(45, 45, 45);"/></g><g class="node" id="node_mt-sapphire" transform="translate(255,865.1012573242188)"><circle r="5" style="fill: rgb(45, 45, 45);"/></g><g class="node" id="node_t-sapphire" transform="translate(170,865.1012573242188)"><circle r="5" style="fill: rgb(45, 45, 45);"/></g><g class="node" id="node_sapphire" transform="translate(85,865.1012573242188)"><circle r="5" style="fill: rgb(45, 45, 45);"/></g><g class="node" id="node_meyfp" transform="translate(170,822.7721557617188)"><circle r="5" style="fill: rgb(45, 45, 45);"/></g><g class="node" id="node_yfp3" transform="translate(255,801.6076049804688)"><circle r="5" style="fill: rgb(45, 45, 45);"/></g><g class="node" id="node_eyfp-f46l" transform="translate(170,801.6076049804688)"><circle r="5" style="fill: rgb(45, 45, 45);"/></g><g class="node" id="node_shardonnay" transform="translate(170,780.4430541992188)"><circle r="5" style="fill: rgb(45, 45, 45);"/></g><g class="node" id="node_moxvenus" transform="translate(425,830.7088623046875)"><circle r="5" style="fill: rgb(45, 45, 45);"/></g><g class="node" id="node_oxvenus" transform="translate(340,830.7088623046875)"><circle r="5" style="fill: rgb(45, 45, 45);"/></g><g class="node" id="node_mvenus-q69m" transform="translate(425,788.3797607421875)"><circle r="5" style="fill: rgb(45, 45, 45);"/></g><g class="node" id="node_syfp2" transform="translate(425,767.2152099609375)"><circle r="5" style="fill: rgb(45, 45, 45);"/></g><g class="node" id="node_sgfp2t65g" transform="translate(595,777.7974853515625)"><circle r="5" style="fill: rgb(45, 45, 45);"/></g><g class="node" id="node_sgfp2e222q" transform="translate(595,756.6329345703125)"><circle r="5" style="fill: rgb(45, 45, 45);"/></g><g class="node" id="node_sgfp2206a" transform="translate(595,735.4683837890625)"><circle r="5" style="fill: rgb(45, 45, 45);"/></g><g class="node" id="node_cfsgfp2" transform="translate(595,714.3037719726562)"><circle r="5" style="fill: rgb(45, 45, 45);"/></g><g class="node" id="node_sgfp2" transform="translate(510,746.0506591796875)"><circle r="5" style="fill: rgb(45, 45, 45);"/></g><g class="node" id="node_sgfp1" transform="translate(425,746.0506591796875)"><circle r="5" style="fill: rgb(45, 45, 45);"/></g><g class="node" id="node_mturquoise-146s" transform="translate(765,746.0506591796875)"><circle r="5" style="fill: rgb(45, 45, 45);"/></g><g class="node" id="node_mturquoise-146g" transform="translate(765,724.8860473632812)"><circle r="5" style="fill: rgb(45, 45, 45);"/></g><g class="node" id="node_superfolder-mturquoise2-ox" transform="translate(935,714.3037719726562)"><circle r="5" style="fill: rgb(45, 45, 45);"/></g><g class="node" id="node_superfolder-mturquoise2" transform="translate(850,714.3037719726562)"><circle r="5" style="fill: rgb(45, 45, 45);"/></g><g class="node" id="node_mturquoise2-g" transform="translate(850,693.1392211914062)"><circle r="5" style="fill: rgb(45, 45, 45);"/></g><g class="node" id="node_mturquoise2" transform="translate(765,703.7214965820312)"><circle r="5" style="fill: rgb(45, 45, 45);"/></g><g class="node" id="node_mturquoise-ra" transform="translate(765,682.5569458007812)"><circle r="5" style="fill: rgb(45, 45, 45);"/></g><g class="node" id="node_mturquoise-gv" transform="translate(765,661.3923950195312)"><circle r="5" style="fill: rgb(45, 45, 45);"/></g><g class="node" id="node_mturquoise-gl" transform="translate(765,640.2278442382812)"><circle r="5" style="fill: rgb(45, 45, 45);"/></g><g class="node" id="node_mturquoise-dr" transform="translate(765,619.0632934570312)"><circle r="5" style="fill: rgb(45, 45, 45);"/></g><g class="node" id="node_mturquoise" transform="translate(680,682.5569458007812)"><circle r="5" style="fill: rgb(45, 45, 45);"/></g><g class="node" id="node_scfp3b" transform="translate(680,661.3923950195312)"><circle r="5" style="fill: rgb(45, 45, 45);"/></g><g class="node" id="node_scfp3a" transform="translate(595,671.9746704101562)"><circle r="5" style="fill: rgb(45, 45, 45);"/></g><g class="node" id="node_scfp2" transform="translate(510,671.9746704101562)"><circle r="5" style="fill: rgb(45, 45, 45);"/></g><g class="node" id="node_scfp1" transform="translate(425,671.9746704101562)"><circle r="5" style="fill: rgb(45, 45, 45);"/></g><g class="node" id="node_sbfp2" transform="translate(510,629.6455688476562)"><circle r="5" style="fill: rgb(45, 45, 45);"/></g><g class="node" id="node_sbfp1" transform="translate(425,629.6455688476562)"><circle r="5" style="fill: rgb(45, 45, 45);"/></g><g class="node" id="node_mvenus" transform="translate(340,709.0126342773438)"><circle r="5" style="fill: rgb(45, 45, 45);"/></g><g class="node" id="node_ypet" transform="translate(340,687.8480834960938)"><circle r="5" style="fill: rgb(45, 45, 45);"/></g><g class="node" id="node_venus" transform="translate(255,759.2785034179688)"><circle r="5" style="fill: rgb(45, 45, 45);"/></g><g class="node" id="node_seyfp" transform="translate(170,759.2785034179688)"><circle r="5" style="fill: rgb(45, 45, 45);"/></g><g class="node" id="node_eyfp-q69k" transform="translate(170,691.8164672851562)"><circle r="5" style="fill: rgb(45, 45, 45);"/></g><g class="node" id="node_citrine2" transform="translate(340,645.5189819335938)"><circle r="5" style="fill: rgb(45, 45, 45);"/></g><g class="node" id="node_mcitrine" transform="translate(255,645.5189819335938)"><circle r="5" style="fill: rgb(45, 45, 45);"/></g><g class="node" id="node_spoon" transform="translate(340,603.1898803710938)"><circle r="5" style="fill: rgb(45, 45, 45);"/></g><g class="node" id="node_dreiklang" transform="translate(255,603.1898803710938)"><circle r="5" style="fill: rgb(45, 45, 45);"/></g><g class="node" id="node_citrine" transform="translate(170,624.3544311523438)"><circle r="5" style="fill: rgb(45, 45, 45);"/></g><g class="node" id="node_eyfp" transform="translate(85,723.5632934570312)"><circle r="5" style="fill: rgb(45, 45, 45);"/></g><g class="node" id="node_11" transform="translate(85,700.9436645507812)"><circle r="5" style="fill: rgb(45, 45, 45);"/></g><g class="node" id="node_gfpmut3" transform="translate(85,678.3240356445312)"><circle r="5" style="fill: rgb(45, 45, 45);"/></g><g class="node" id="node_gfpmut2" transform="translate(85,655.7044067382812)"><circle r="5" style="fill: rgb(45, 45, 45);"/></g><g class="node" id="node_rsgfp7" transform="translate(85,633.0848388671875)"><circle r="5" style="fill: rgb(45, 45, 45);"/></g><g class="node" id="node_rsgfp6" transform="translate(85,610.4652099609375)"><circle r="5" style="fill: rgb(45, 45, 45);"/></g><g class="node" id="node_rsgfp4" transform="translate(85,587.8455810546875)"><circle r="5" style="fill: rgb(45, 45, 45);"/></g><g class="node" id="node_rsgfp3" transform="translate(85,565.2259521484375)"><circle r="5" style="fill: rgb(45, 45, 45);"/></g><g class="node" id="node_rsgfp2" transform="translate(85,542.6063232421875)"><circle r="5" style="fill: rgb(45, 45, 45);"/></g><g class="node" id="node_rsgfp1" transform="translate(85,519.9866943359375)"><circle r="5" style="fill: rgb(45, 45, 45);"/></g><g class="node" id="node_w1c" transform="translate(255,518.5316162109375)"><circle r="5" style="fill: rgb(45, 45, 45);"/></g><g class="node" id="node_ecfp-h148d" transform="translate(340,560.8607788085938)"><circle r="5" style="fill: rgb(45, 45, 45);"/></g><g class="node" id="node_mecfp" transform="translate(340,539.6962280273438)"><circle r="5" style="fill: rgb(45, 45, 45);"/></g><g class="node" id="node_d10" transform="translate(340,518.5316162109375)"><circle r="5" style="fill: rgb(45, 45, 45);"/></g><g class="node" id="node_cypet" transform="translate(340,497.3670959472656)"><circle r="5" style="fill: rgb(45, 45, 45);"/></g><g class="node" id="node_nowgfp" transform="translate(595,534.4050903320312)"><circle r="5" style="fill: rgb(45, 45, 45);"/></g><g class="node" id="node_wascfp" transform="translate(510,534.4050903320312)"><circle r="5" style="fill: rgb(45, 45, 45);"/></g><g class="node" id="node_mceruleanb24" transform="translate(680,492.0759582519531)"><circle r="5" style="fill: rgb(45, 45, 45);"/></g><g class="node" id="node_mceruleanb2" transform="translate(595,492.0759582519531)"><circle r="5" style="fill: rgb(45, 45, 45);"/></g><g class="node" id="node_mceruleanb" transform="translate(510,492.0759582519531)"><circle r="5" style="fill: rgb(45, 45, 45);"/></g><g class="node" id="node_mcerulean2d3" transform="translate(595,449.746826171875)"><circle r="5" style="fill: rgb(45, 45, 45);"/></g><g class="node" id="node_moxcerulean3" transform="translate(680,428.582275390625)"><circle r="5" style="fill: rgb(45, 45, 45);"/></g><g class="node" id="node_mcerulean3" transform="translate(595,428.582275390625)"><circle r="5" style="fill: rgb(45, 45, 45);"/></g><g class="node" id="node_mcerulean2nt65s" transform="translate(680,386.253173828125)"><circle r="5" style="fill: rgb(45, 45, 45);"/></g><g class="node" id="node_mcerulean2n" transform="translate(595,386.253173828125)"><circle r="5" style="fill: rgb(45, 45, 45);"/></g><g class="node" id="node_mcerulean2" transform="translate(510,418)"><circle r="5" style="fill: rgb(45, 45, 45);"/></g><g class="node" id="node_mcerulean" transform="translate(425,476.2025451660156)"><circle r="5" style="fill: rgb(45, 45, 45);"/></g><g class="node" id="node_cerulean" transform="translate(340,476.2025451660156)"><circle r="5" style="fill: rgb(45, 45, 45);"/></g><g class="node" id="node_cfp4" transform="translate(340,455.0379638671875)"><circle r="5" style="fill: rgb(45, 45, 45);"/></g><g class="node" id="node_aquamarine" transform="translate(340,433.8734130859375)"><circle r="5" style="fill: rgb(45, 45, 45);"/></g><g class="node" id="node_ecfp" transform="translate(255,497.3670959472656)"><circle r="5" style="fill: rgb(45, 45, 45);"/></g><g class="node" id="node_w7" transform="translate(170,507.9493713378906)"><circle r="5" style="fill: rgb(45, 45, 45);"/></g><g class="node" id="node_w2" transform="translate(170,486.7848205566406)"><circle r="5" style="fill: rgb(45, 45, 45);"/></g><g class="node" id="node_cfp" transform="translate(85,497.3670959472656)"><circle r="5" style="fill: rgb(45, 45, 45);"/></g><g class="node" id="node_rsfolder2" transform="translate(425,391.5443115234375)"><circle r="5" style="fill: rgb(45, 45, 45);"/></g><g class="node" id="node_rsfolder" transform="translate(340,391.5443115234375)"><circle r="5" style="fill: rgb(45, 45, 45);"/></g><g class="node" id="node_vsfgfp-0" transform="translate(340,370.3797607421875)"><circle r="5" style="fill: rgb(45, 45, 45);"/></g><g class="node" id="node_mugfp" transform="translate(425,349.2151794433594)"><circle r="5" style="fill: rgb(45, 45, 45);"/></g><g class="node" id="node_usgfp" transform="translate(340,349.2151794433594)"><circle r="5" style="fill: rgb(45, 45, 45);"/></g><g class="node" id="node_vsgfp" transform="translate(340,328.0506286621094)"><circle r="5" style="fill: rgb(45, 45, 45);"/></g><g class="node" id="node_moxgfp" transform="translate(425,306.8860778808594)"><circle r="5" style="fill: rgb(45, 45, 45);"/></g><g class="node" id="node_oxgfp" transform="translate(340,306.8860778808594)"><circle r="5" style="fill: rgb(45, 45, 45);"/></g><g class="node" id="node_vsfgfp-9" transform="translate(340,285.7215270996094)"><circle r="5" style="fill: rgb(45, 45, 45);"/></g><g class="node" id="node_superfolder-gfp" transform="translate(255,338.6329040527344)"><circle r="5" style="fill: rgb(45, 45, 45);"/></g><g class="node" id="node_folding-reporter-gfp" transform="translate(170,338.6329040527344)"><circle r="5" style="fill: rgb(45, 45, 45);"/></g><g class="node" id="node_alphagfp" transform="translate(85,338.6329040527344)"><circle r="5" style="fill: rgb(45, 45, 45);"/></g><g class="node" id="node_bruslee" transform="translate(170,296.3038024902344)"><circle r="5" style="fill: rgb(45, 45, 45);"/></g><g class="node" id="node_memerald" transform="translate(255,275.1392517089844)"><circle r="5" style="fill: rgb(45, 45, 45);"/></g><g class="node" id="node_emerald" transform="translate(170,275.1392517089844)"><circle r="5" style="fill: rgb(45, 45, 45);"/></g><g class="node" id="node_mkalama1" transform="translate(170,253.9746856689453)"><circle r="5" style="fill: rgb(45, 45, 45);"/></g><g class="node" id="node_rsegfp2" transform="translate(340,232.81011962890625)"><circle r="5" style="fill: rgb(45, 45, 45);"/></g><g class="node" id="node_rsegfp" transform="translate(255,232.81011962890625)"><circle r="5" style="fill: rgb(45, 45, 45);"/></g><g class="node" id="node_megfp" transform="translate(170,232.81011962890625)"><circle r="5" style="fill: rgb(45, 45, 45);"/></g><g class="node" id="node_mametrine" transform="translate(170,211.64556884765625)"><circle r="5" style="fill: rgb(45, 45, 45);"/></g><g class="node" id="node_egfp" transform="translate(85,253.9746856689453)"><circle r="5" style="fill: rgb(45, 45, 45);"/></g><g class="node" id="node_p9" transform="translate(85,222.22784423828125)"><circle r="5" style="fill: rgb(45, 45, 45);"/></g><g class="node" id="node_p11" transform="translate(85,190.48101806640625)"><circle r="5" style="fill: rgb(45, 45, 45);"/></g><g class="node" id="node_h9" transform="translate(85,158.7341766357422)"><circle r="5" style="fill: rgb(45, 45, 45);"/></g><g class="node" id="node_sg50" transform="translate(170,169.3164520263672)"><circle r="5" style="fill: rgb(45, 45, 45);"/></g><g class="node" id="node_sg42" transform="translate(170,148.1519012451172)"><circle r="5" style="fill: rgb(45, 45, 45);"/></g><g class="node" id="node_sg25" transform="translate(170,126.98734283447266)"><circle r="5" style="fill: rgb(45, 45, 45);"/></g><g class="node" id="node_sg12" transform="translate(170,105.82278442382812)"><circle r="5" style="fill: rgb(45, 45, 45);"/></g><g class="node" id="node_sg11" transform="translate(170,84.6582260131836)"><circle r="5" style="fill: rgb(45, 45, 45);"/></g><g class="node" id="node_q80r" transform="translate(85,126.98734283447266)"><circle r="5" style="fill: rgb(45, 45, 45);"/></g><g class="node" id="node_moxbfp" transform="translate(595,74.0759506225586)"><circle r="5" style="fill: rgb(45, 45, 45);"/></g><g class="node" id="node_oxbfp" transform="translate(510,74.0759506225586)"><circle r="5" style="fill: rgb(45, 45, 45);"/></g><g class="node" id="node_ebfp2" transform="translate(425,74.0759506225586)"><circle r="5" style="fill: rgb(45, 45, 45);"/></g><g class="node" id="node_ebfp15" transform="translate(425,52.91139221191406)"><circle r="5" style="fill: rgb(45, 45, 45);"/></g><g class="node" id="node_ebfp12" transform="translate(340,63.49367141723633)"><circle r="5" style="fill: rgb(45, 45, 45);"/></g><g class="node" id="node_ebfp" transform="translate(255,63.49367141723633)"><circle r="5" style="fill: rgb(45, 45, 45);"/></g><g class="node" id="node_bfpa5" transform="translate(255,42.3291130065918)"><circle r="5" style="fill: rgb(45, 45, 45);"/></g><g class="node" id="node_azurite" transform="translate(255,21.1645565032959)"><circle r="5" style="fill: rgb(45, 45, 45);"/></g><g class="node" id="node_bfp" transform="translate(170,42.3291130065918)"><circle r="5" style="fill: rgb(45, 45, 45);"/></g><g class="node" id="node_bfp5" transform="translate(170,21.1645565032959)"><circle r="5" style="fill: rgb(45, 45, 45);"/></g><g class="node" id="node_p4" transform="translate(85,31.746835708618164)"><circle r="5" style="fill: rgb(45, 45, 45);"/></g><g class="node" id="node_avgfp" transform="translate(0,527.7911376953125)"><circle r="5" style="fill: rgb(45, 45, 45);"/></g></g></svg>